<svg width="236" height="102" viewBox="0 0 236 102" fill="none" xmlns="http://www.w3.org/2000/svg">
<rect width="235.385" height="102" rx="51" fill="black"/>
<path d="M89.2186 55.0996C86.5601 55.8057 83.8211 56.1631 81.0704 56.1628C72.6946 56.1628 64.8289 52.9066 58.9207 46.9985C55.041 43.0964 52.2517 38.2455 50.831 32.9295C49.4103 27.6135 49.4077 22.0179 50.8235 16.7005C51.0003 16.0357 50.9992 15.3361 50.8202 14.6718C50.6413 14.0075 50.2908 13.402 49.804 12.916C49.3171 12.4299 48.711 12.0804 48.0465 11.9026C47.3819 11.7247 46.6823 11.7247 46.0177 11.9026C39.3609 13.6766 33.2876 17.1698 28.407 22.032C13.1149 37.3242 13.1149 62.2161 28.407 77.5161C32.0419 81.1712 36.3655 84.0691 41.1278 86.0421C45.89 88.0152 50.9963 89.0242 56.151 89.0107C61.3044 89.0252 66.4095 88.017 71.1705 86.0446C75.9315 84.0721 80.2539 81.1747 83.8872 77.52C88.753 72.6385 92.2479 66.562 94.0205 59.9015C94.1966 59.2369 94.1951 58.5378 94.0163 57.874C93.8374 57.2102 93.4874 56.6049 93.0013 56.1188C92.5152 55.6327 91.9099 55.2827 91.2461 55.1038C90.5823 54.925 89.8832 54.9235 89.2186 55.0996ZM78.3439 71.9728C75.4368 74.8958 71.9788 77.2133 68.1701 78.7911C64.3613 80.3689 60.2775 81.1756 56.1549 81.1645C52.031 81.1748 47.9459 80.3674 44.1359 78.789C40.3259 77.2106 36.8667 74.8925 33.9582 71.9688C21.726 59.7328 21.726 39.8192 33.9582 27.5832C36.3219 25.2221 39.0507 23.2576 42.0397 21.7652C41.6022 27.4108 42.3887 33.0842 44.3454 38.3979C46.3021 43.7115 49.383 48.54 53.3774 52.5535C57.3821 56.5605 62.2092 59.6499 67.5251 61.6081C72.8409 63.5663 78.5187 64.3466 84.1657 63.8952C82.6652 66.8791 80.7001 69.6056 78.3439 71.9728Z" fill="#F1C40F"/>
<path d="M161.434 51.0769C161.434 61.9085 170.245 70.7198 181.077 70.7198C191.909 70.7198 200.72 61.9085 200.72 51.0769C200.72 40.2453 191.909 31.4341 181.077 31.4341C170.245 31.4341 161.434 40.2453 161.434 51.0769ZM181.077 39.2802C187.581 39.2802 192.874 44.5725 192.874 51.0769C192.874 57.5814 187.581 62.8736 181.077 62.8736C174.572 62.8736 169.28 57.5814 169.28 51.0769C169.28 44.5725 174.572 39.2802 181.077 39.2802ZM177.146 78.5385H184.992V90.3077H177.146V78.5385ZM177.146 11.8462H184.992V23.6154H177.146V11.8462ZM141.838 47.1539H153.608V55H141.838V47.1539ZM208.531 47.1539H220.3V55H208.531V47.1539ZM150.551 76.0395L158.868 67.7147L164.42 73.2619L156.103 81.5867L150.551 76.0395ZM197.711 28.888L206.036 20.5632L211.583 26.1105L203.258 34.4352L197.711 28.888ZM158.88 34.4392L150.555 26.1144L156.107 20.5672L164.423 28.8919L158.88 34.4392ZM211.583 76.0434L206.036 81.5906L197.711 73.2659L203.258 67.7186L211.583 76.0434Z" fill="#F39C12"/>
<circle cx="55.1538" cy="51.1538" r="43.1538" fill="#F1F1F1"/>
</svg>
