<svg width="236" height="102" viewBox="0 0 236 102" fill="none" xmlns="http://www.w3.org/2000/svg">
<rect width="235.385" height="102" rx="51" fill="black"/>
<path d="M86.3725 55.1765C83.714 55.8826 80.975 56.24 78.2243 56.2397C69.8485 56.2397 61.9828 52.9835 56.0746 47.0754C52.1949 43.1733 49.4056 38.3225 47.9849 33.0064C46.5642 27.6904 46.5616 22.0948 47.9774 16.7775C48.1542 16.1126 48.1531 15.413 47.9741 14.7487C47.7952 14.0845 47.4447 13.4789 46.9578 12.9929C46.471 12.5068 45.8649 12.1573 45.2003 11.9795C44.5358 11.8016 43.8361 11.8016 43.1716 11.9795C36.5148 13.7535 30.4415 17.2468 25.5609 22.1089C10.2688 37.4011 10.2688 62.293 25.5609 77.593C29.1958 81.2481 33.5194 84.146 38.2816 86.1191C43.0439 88.0921 48.1501 89.1011 53.3049 89.0876C58.4583 89.1021 63.5634 88.0939 68.3244 86.1215C73.0854 84.1491 77.4077 81.2516 81.0411 77.5969C85.9069 72.7154 89.4018 66.6389 91.1744 59.9784C91.3505 59.3138 91.349 58.6147 91.1701 57.9509C90.9913 57.2871 90.6413 56.6819 90.1552 56.1957C89.6691 55.7096 89.0638 55.3596 88.4 55.1808C87.7362 55.0019 87.0371 55.0004 86.3725 55.1765ZM75.4978 72.0497C72.5906 74.9728 69.1327 77.2902 65.3239 78.868C61.5152 80.4458 57.4314 81.2525 53.3088 81.2415C49.1849 81.2517 45.0998 80.4443 41.2898 78.8659C37.4798 77.2875 34.0206 74.9694 31.1121 72.0458C18.8799 59.8097 18.8799 39.8962 31.1121 27.6601C33.4757 25.2991 36.2046 23.3345 39.1936 21.8422C38.7561 27.4877 39.5426 33.1611 41.4993 38.4748C43.456 43.7884 46.5369 48.617 50.5313 52.6305C54.536 56.6374 59.3631 59.7268 64.679 61.685C69.9948 63.6432 75.6726 64.4236 81.3196 63.9721C79.8191 66.956 77.854 69.6825 75.4978 72.0497Z" fill="#F1C40F"/>
<path d="M165.434 51.0769C165.434 61.9085 174.245 70.7198 185.077 70.7198C195.908 70.7198 204.72 61.9085 204.72 51.0769C204.72 40.2453 195.908 31.4341 185.077 31.4341C174.245 31.4341 165.434 40.2453 165.434 51.0769ZM185.077 39.2802C191.581 39.2802 196.874 44.5725 196.874 51.0769C196.874 57.5814 191.581 62.8736 185.077 62.8736C178.572 62.8736 173.28 57.5814 173.28 51.0769C173.28 44.5725 178.572 39.2802 185.077 39.2802ZM181.146 78.5385H188.992V90.3077H181.146V78.5385ZM181.146 11.8462H188.992V23.6154H181.146V11.8462ZM145.838 47.1539H157.607V55H145.838V47.1539ZM212.531 47.1539H224.3V55H212.531V47.1539ZM154.551 76.0395L162.868 67.7147L168.419 73.2619L160.103 81.5867L154.551 76.0395ZM201.711 28.888L210.035 20.5632L215.583 26.1105L207.258 34.4352L201.711 28.888ZM162.88 34.4392L154.555 26.1144L160.106 20.5672L168.423 28.8919L162.88 34.4392ZM215.583 76.0434L210.035 81.5906L201.711 73.2659L207.258 67.7186L215.583 76.0434Z" fill="#F39C12"/>
<circle cx="181.154" cy="51.1538" r="43.1538" fill="#F1F1F1"/>
</svg>
